<?xml version="1.0" encoding="UTF-8" standalone="yes"?><svg xmlns="http://www.w3.org/2000/svg" baseProfile="tiny-ps" version="1.2" viewBox="0 0 256 256"><title>CipherHacksLogo</title><!-- Generator: Adobe Illustrator 28.7.1, SVG Export Plug-In . SVG Version: 1.2.0 Build 142)  --><g><g id="Layer_1"><path d="M256,128c0,42.3,0,84.6,0,126.9,0,.9-.2,1.1-1.1,1.1-84.6,0-169.1,0-253.7,0-.9,0-1.1-.2-1.1-1.1C0,170.3,0,85.7,0,1.1,0,.2.2,0,1.1,0c84.6,0,169.1,0,253.7,0,.9,0,1.1.2,1.1,1.1,0,42.3,0,84.6,0,126.9Z" fill="#282c34"></path><path d="M62.3,92.4c0-6.6.4-13.2,1.2-19.8.4-3.5.4-3.5,3.9-3.5,15.2-.4,30.1-2.6,44.2-8.5,7.2-3,14.2-6.6,20.3-11.6.6-.5,1-.9,1.9-.2,8.7,6.7,18.5,11.4,28.9,14.8,7,2.3,14.2,3.7,21.5,4.6,5.3.6,10.5,1,15.8,1,1.5,0,2,.4,2.3,1.9.5,3.1.7,6.2.9,9.3.5,7.2.6,14.3,0,21.5-1.2,15.2-4.7,29.7-11.2,43.5-8,16.8-20.1,30-34.9,41-7,5.2-14.4,9.6-22.2,13.4-1.4.7-2.4.7-3.8,0-13.6-6.8-26.1-15.4-37-26-11.1-10.8-18.9-23.7-24.3-38.1-3.4-9-5.5-18.3-6.7-27.9-.6-5-.8-10.1-.8-15.2Z" fill="#61afef"></path><path d="M70.3,112.3c-1.1-5.1-1.4-10.3-1.6-15.5-.2-4.5,0-8.9.3-13.3.2-2.4.4-4.8.5-7.2,0-.9.6-1,1.3-1,11.1-.5,22.1-2.1,32.7-5.3.4-.1.8-.3,1.2-.4.2,0,.3.2.3.4-.5,2.1,0,4.3-.3,6.4-.2,1.9.4,3.3,1.9,4.5,1.9,1.6,3.4,3.6,5.1,5.3,1.1,1.1,2,2.2,3.5,2.8-1.8,2.5-2.9,5.3-3.8,8.2-1.1-.7-2.1-1.6-2.9-2.6-1.7-1.9-3.6-3-6.2-2.6-.5,0-1.1,0-1.6,0-2.1,0-3.8-1.6-3.8-3.8,0-1.6,0-3.2.1-4.7.1-1-.2-1.9-.9-2.6-2-2-3.9-4-5.9-5.9-.4-.4-.9-1.1-1.4-.5-.4.5.3.9.7,1.3,1.8,1.7,3.3,3.5,5.1,5.1.9.8,1.3,1.8,1.3,3,0,1.7,0,3.4,0,5.1,0,.8.2,1.5.8,2,.4.4.8.7,1.1,1.1.8.9,1.7,1.2,2.9,1.2,6,0,4-.7,8.2,3.3.6.6,1.1,1.3,2.2,1.2.3,0,.3.3.2.6,0,.6,0,1.3,0,1.9q-.2,2.4-2.7,2.4c-1.1,0-2.2,0-3.2,0-1.3,0-2.2-.3-3-1.3-1.4-1.8-3.5-1.5-4.6.4-.7,1.3-.5,2.5.6,3.6,1,.9,2.5,1.1,3.5,0,1.3-1.5,2.8-1.6,4.5-1.5,1,0,2-.3,3-.2,1.9,0,1.8,0,1.9,1.6,0,1.5,0,3,0,4.5,0,.7-.3,1.1-1.1,1-1.5,0-2.8.6-3.8,1.6-.6.7-1.3.8-2.2.9-2.1,0-4,.1-5.2-2.3-1-1.9-3.3-2.9-4.7-4.6-1.7-2.1-3.5-3.9-5.4-5.8-.3-.3-.2-.6,0-.9,1.1-3.4-.4-6.6-3.6-7.8-3-1.1-6.2.4-7.7,3.5,0,.2-.1.5-.4.6-.5-.7-1.1-.9-1.9-.9-1.5,0-2.9,0-4.4,0-.4,0-1.1-.2-1.1.4,0,.6.7.5,1.1.5,2.1,0,4.2,0,6.3,0,0,1.8,0,3.5,1.1,5,1.7,2.1,3.8,3,6.5,2.2.8-.3,1.3-.1,1.9.5,3.4,3.6,7,7,10.4,10.6,1.5,1.6,3.1,2.3,5.3,2.2,2.4-.2,2.1-.4,2.1,2,0,3.9,0,7.7,0,11.6,0,2,0,2-2,2-2.2,0-4.5,0-6.7,0-.9,0-1.4-.2-1.9-1-2.6-3.4-6.6-4.1-9.5-1.1-2.5,2.5-2.3,6.3.4,8.6,2.5,2.2,6.8,1.9,8.6-.9,1.1-1.7,2.3-2,4.1-1.9,1.9.1,3.9,0,5.9,0,.8,0,1.2.3,1.2,1.1.2,3.6,0,7.2,0,10.9,0,.7-.4,1.2-.8,1.6-3.8,3.9-7.6,7.7-11.4,11.6-.3.3-.5.5-.8,0-3.1-4.2-6.4-8.3-8.6-13.1.2-.1.4,0,.6.1.7,1,1.7,1,2.8,1,2.1,0,4.2,0,6.4,0,.9,0,1.6-.3,2.2-.9,1.1-1.2,2.3-2.2,3.4-3.5,1.1-1.2,2.3-1.8,3.9-1.7.5,0,1.4.3,1.4-.5,0-.7-.9-.4-1.4-.5-2.1-.3-3.8.3-5.1,2.1-.7.9-1.6,1.5-2.3,2.4-.7,1-1.6,1.3-2.8,1.3-2.7,0-5.5,0-8.2,0-.3,0-.6,0-.8.1-2-2.8-3.3-5.9-4.7-9-3.7-7.9-5.9-16.2-7.5-24.8,0-.2,0-.3,0-.5.2-.5.7-.4,1.1-.4,3.2,0,6.3,0,9.5,0,1.2,0,2.1.4,2.9,1.2,2.2,2.3,4.6,4.4,7,6.6.8.7,1.7,1,2.7,1,2.8,0,5.6,0,8.4,0,.3,0,.6,0,.9,0,.3,0,.6-.2.6-.6,0-.4-.2-.5-.5-.6-.4,0-.7,0-1.1,0-2.6,0-5.2,0-7.9,0-1.2,0-2.1-.4-3-1.2-2.4-2.3-4.8-4.6-7.3-6.8-.6-.6-1.4-.7-2.2-.7-3.2-.1-6.3.2-9.5.3-.6,0-1.3.1-1.8-.4Z" fill="#282c34"></path><path d="M187.5,93.2c-1-2.3-2.4-4-5-4.5-4.3-.8-8.3,3.3-7,7.5.5,1.6.1,2.5-1,3.6-4.4,4.2-8.6,8.6-12.9,12.9-.5.5-.7.7-1.3,0-1.1-1.2-2.5-1.8-4.1-1.7-1.1,0-1.4-.3-1.4-1.4,0-3.6.3-7.2-.1-10.7-.7-6.1-3.6-11-8.5-14.7-.2-.2-.4-.3-.6-.5-.5-2.6-.3-5.3-.3-8,0-.7.4-1.2.9-1.7.9-1,1.9-1.9,2.8-2.8.7-.7,1.1-4,.6-4.9-.1-.2-.3-.4-.6-.4-.4,0-.4.3-.5.6,0,.6,0,1.2.1,1.7.2,1.1-.1,2-1,2.7-1,.8-1.7,1.8-2.7,2.6-.6.6-.8,1.3-.8,2,0,2.2-.2,4.5.1,6.7,0,.2.1.5-.3.5-1.3-.6-2.5-1.2-3.9-1.7-3.8-1.4-7.7-1.5-11.6-.7-.3,0-.6,0-.9.1-.2,0-.4,0-.3-.2.7-2.1.2-4.3.4-6.4,0,0,0-.2,0-.2.4-2.4-.5-4.2-2.4-5.6-.9-.6-1.1-1.5-1.1-2.5,0-.6,0-1.2,0-1.9,0-.8-.3-1.2-1-1.2-.1,0-.2-.2-.1-.3,3.1-2,6.5-3.6,9.6-5.8.6-.4.9,0,1.2.3,5,3.2,10.2,6.1,15.6,8.5,8.5,3.8,17.4,6.3,26.5,8,.6.1,1.2,0,1.6.5.8,1.4.2,2.5-.7,3.5-.9,1.1-2.2,2-3.2,3-3.2,3.2-6.4,6.4-9.6,9.6-.8.8-1.3,1.7-1.2,2.9,0,1,0,2.1,0,3.1,0,1.2-.1,2.3-1.1,3.3-1.1,1.1-.8,2.8.4,3.9,1.2,1.1,2.8,1.1,3.8.2,1.2-1.1,1.4-3.3.1-4.1-1.9-1.3-1.9-3-1.9-5,0-1.6.3-2.9,1.4-4.1,1.5-1.5,3-3,4.5-4.4,2.7-2.6,5.3-5.3,8-7.9.9-.9,1-1.9.7-3-.2-.8.2-.8.8-.7,5.3.7,10.6,1.2,16,1.3.7,0,.7.4.7.9.7,5.7,1.1,11.4.9,17.1-.5.3-1.1.2-1.7.2-2.2,0-4.4,0-6.6,0-.5,0-.9,0-1.3-.2Z" fill="#282c34"></path><path d="M197,97.6c0,6.7-1.3,13.3-2.6,19.9-.8-.8-1.7-1-2.8-.9-.8,0-1.4-.3-1.8-1.1-.7-1.2-1.9-1.6-3.2-1.3-1.1.2-2,1.3-2.2,2.4-.2,1.3.3,2.3,1.4,3,1.3.9,2.6.6,3.8-.8.9-1.1,3.3-1.5,4.5-.9.2,0,.2.2.1.4-1.2,7.1-3.5,13.8-6.3,20.4-.6-.3-1.2-.4-1.9-.4-2.8,0-5.6,0-8.4,0-1.2,0-2.2-.4-3-1.3-.8-.9-1.8-1.8-2.6-2.7-.5-.5-1.1-.8-1.9-.9-2.1,0-4.2,0-6.4,0-.4,0-1-.1-1,.5,0,.6.6.5,1,.5,1.7,0,3.5,0,5.2,0,1,0,1.8.3,2.5,1,.9.9,1.9,1.7,2.8,2.6.8.8,1.8,1.1,2.9,1.1,3,0,6,0,9,0,.4,0,1-.3,1.2.4-1.4,3.5-3.2,6.7-5.2,9.9-.4.7-.7.5-1.2,0-3.2-3.3-6.5-6.5-9.7-9.9-1.5-1.6-3.1-2.4-5.3-2.2-1.1.1-2.2,0-3.4,0-.7,0-1-.3-1-1,0-2.5,0-4.9,0-7.4,0-.8.3-1,1-1,3.7,0,7.5,0,11.2,0,.7,0,.8.5,1,.9,2.2,4,7.8,4.4,10.3.7,1.7-2.5,1.5-6.6-2-8.6-3-1.7-6.8-.6-8.3,2.6-.5,1-1,1.2-2,1.2-3.4,0-6.7,0-10.1,0-.9,0-1.2-.2-1.2-1.2,0-1.7,0-3.5,0-5.2,0-1,.2-1.8,1.1-2.4.1-.4.4-.6.7-.9,4.8-4.9,9.7-9.7,14.6-14.5.4-.4.7-1.1,1.4-.6,4.1,1.3,7.2-.7,8.1-5.3,0-.6.4-.6.9-.6,2.5,0,5,0,7.4,0,.9,0,1.4.4,1.3,1.4,0,.6,0,1.2,0,1.8Z" fill="#282c34"></path><path d="M135.5,192c-1.6,1.3-3.2,1.6-4.9.2-1-.8-2.3-1.2-3.3-2.1-.3-.5-.4-1-.4-1.6,0-2.6,0-5.2,0-7.7,0-1.2.4-2.1,1.4-2.8.3-.2.6-.6.9-.8,1.1-.9,1.5-2,1.5-3.4,0-4.6,0-9.2,0-13.7,0-.5.2-1.4-.5-1.4-.9,0-.6.9-.6,1.5,0,4.5,0,8.9,0,13.4,0,1.3-.3,2.4-1.3,3.2-.2.2-.4.4-.6.6-1.2.9-1.6,2.2-1.6,3.7.1,2.6-.3,5.1,0,7.7,0,.2,0,.4-.3.4-1.1-.3-2-1-3-1.6-3.3-1.9-6.4-4-9.5-6.2-.6-.5-.8-.7-.1-1.3,3.9-3.9,7.8-7.8,11.6-11.7,1-1,1.6-2.2,1.5-3.7,0-2,0-3.9,0-5.9,0-.8.2-1,1-1,2.1,0,4.2,0,6.2,0,.7,0,.9.3.9,1,0,1.5,0,2.9,0,4.4,0,1,.3,1.9,1,2.6,1.8,1.8,3.6,3.7,5.5,5.5.6.6.8,1.1.4,1.9-1.3,2.9.4,6.4,3.6,7.6.4.2.9.3,1.3.4.7,1.5.4,3.2.4,4.7-3.2,2.2-6.5,4.1-10.1,5.7-.2,0-.4,0-.3-.2.9-1.1.7-2.4.6-3.7,0-1.1.3-1.9,1.2-2.5,1.5-1,1.7-2.9.6-4.1-1.1-1.3-3-1.4-4.2-.3-1.3,1.2-1.2,3.1.2,4.3.9.8,1.2,1.6,1.2,2.7,0,1.4.2,2.9-.1,4.3Z" fill="#282c34"></path><path d="M119.7,95.7c1.9-4.3,5.4-6.8,9.8-8.2,7.4-2.3,18.4,3.3,18.3,14,0,2.8,0,5.6,0,8.4,0,.8-.3,1.2-1.1,1.2-6.6,0-13.2,0-19.8,0-.7-.9-.5-1.9-.3-2.8.4-2.6-1.4-3.9-3.2-5-1-.7-2.4-.3-3.6-.2-.2,0-.4.2-.4.4,0,.3.2.4.4.4.4.1.7,0,1.1,0,2.9,0,4.6,1.8,4.6,4.7,0,.8.2,1.7-.4,2.4-1.9,0-3.8,0-5.7,0-.6,0-1-.2-1-.9,0-3.6-.2-7.2.2-10.8.2-1.3.5-2.5,1.2-3.6.3,1,1,1.2,2,1.2,1.7,0,3.4,0,5.1,0,.9,0,1.7.3,2.4.9,3.6,3.3,3.1,2.2,3.1,7.1,0,1.5,0,2.9,0,4.4,0,.4,0,.9.6.9.6,0,.6-.5.6-.9,0-2.6,0-5.2,0-7.7,0-.5-.2-.9-.5-1.3-1.1-1.4-2.3-2.6-3.6-3.8-.5-.5-1.2-.6-1.8-.6-2.2,0-4.4,0-6.6,0-.5,0-.9,0-1.3-.2Z" fill="#282c34"></path><path d="M175.5,159.8c-5,6.6-11,12.3-17.3,17.6-.4.3-.8.6-1.2.9-.7,0-.6-.7-.6-1.1,0-1.4,0-2.7,0-4.1,0-1.1-.3-1.9-1.1-2.7-2.2-2.2-4.5-4.4-6.7-6.7-1.6-1.6-2-4-1.1-6,2.2-.3,4.5,0,6.7-.2,2.2-.1,4.2-.7,5.8-2.3,1.1-1.2,1.7-2.5,1.8-4.1.2-3,0-6.1,0-9.1,0-.8.3-1,1-1.1,3.3-.4,5.9.6,8.1,3.2,2.6,3.1,5.7,5.8,8.7,8.6.5.5.4.8,0,1.3-1.2,1.7-2.5,3.4-3.7,5.2-.3,0-.4-.2-.3-.4.6-1-.1-1.5-.7-2.1-2.7-2.6-5.2-5.4-7.8-8.1-1.2-1.2-2.5-1.1-3.9-1-.3,0-.5.2-.5.4,0,.4.2.5.5.6.3,0,.6,0,.9,0,.8,0,1.4.2,2,.8,3,3.1,6.2,6,9,9.2.3.3.6.6.5,1.1Z" fill="#282c34"></path><path d="M111.8,176.3c-.4.4-.8.9-1.2,1.3q-1.1,1.2-2.3,0c-.3-.5-.4-1.1-.4-1.7,0-1.7,0-3.4,0-5.1,0-1.1.2-1.9,1.1-2.7.8-.7,1.3-1.5,1.1-2.6-.2-1.3-1.1-2.3-2.4-2.5-1.3-.2-2.5.4-3,1.5-.6,1.3-.4,2.4.6,3.4.6.6,1.6,1,1.6,2.1,0,1.9.3,3.7-.3,5.6,0,.2-.2.4-.5.3-4.1-3.3-7.8-7-11.4-10.8-.4-.5-.6-.8,0-1.4,3.5-3.3,6.9-6.7,10.3-10,1.1,2.9,3.6,3.9,6.6,4,3.4,0,6.7.1,10.1,0,1,0,1.2.3,1.1,1.2-.2,2.1.5,4.4-.3,6.3-.8,1.9-2.8,3-4.2,4.5-1.6,1.7-3.3,3.4-5,5.1-.3,0-.4-.1-.4-.3-.2-1.7-.4-3.3.9-4.7.9-1,1.9-2,2.9-2.9.5-.5.9-1.1.8-1.9,0-1.8,0-3.7,0-5.5,0-.4,0-.9-.5-.9-.6,0-.5.6-.5.9,0,1.6,0,3.2,0,4.7,0,.9-.3,1.6-.9,2.2-.9.9-1.8,1.8-2.8,2.6-.9.7-1.3,1.5-1.1,2.7.3,1.5,0,3,.2,4.5Z" fill="#282c34"></path><path d="M132.8,148.2c-1.4,0-2.7,0-4.1,0-1.5,0-1.9-.5-1.6-1.9.8-3.6,1.5-7.1,2.1-10.7.1-.8,0-1.2-.6-1.7-2.6-2.4-3.4-5.4-2.2-8.1,1.1-2.6,3.2-4.2,6-4.5,3-.3,5.4.9,6.9,3.6,1.4,2.7,1.1,5.3-.5,7.8-.1.2-.2.4-.4.5-1.9,1.3-1.6,3-1.2,4.8.6,2.8,1.1,5.7,1.6,8.6.2,1.1-.4,1.7-1.5,1.7-1.5,0-2.9,0-4.4,0h0Z" fill="#282c34"></path><path d="M123,62.3c0,0,0,.2,0,.2,0,1.1-.1,2.2-.1,3.3,0,1.1.3,2.1,1.2,2.7,2,1.5,2.6,3.4,2.4,5.9-.2,1.8-.1,3.7,0,5.6,0,.3,0,.7-.3.9-4.4,1.4-7.9,4-10.7,7.6-1-1.8-2.8-3-4.2-4.6-1.3-1.5-2.8-2.9-4.2-4.3-.7-.7-1.1-1.5-1-2.4.1-2.2-.3-4.4-.2-6.6,0-.8-.6-.6-.9-1,0,0-.2-.1-.3-.2,5.8-1.7,11.4-4,16.9-6.7.4-.2.9-.4,1.4-.6Z" fill="#282c34"></path><path d="M155.4,179.5c-2.3,1.9-4.8,3.7-7.3,5.3-.2,0-.4,0-.4-.2,0-1-.3-2.1,0-3.1.8-.4,1.5-.8,2.2-1.3,2.7-1.7,3.6-5.1,2.2-7.9-1.4-2.8-4.4-4.1-7.5-3-.6.2-1,0-1.4-.3-1.7-1.7-3.5-3.5-5.2-5.2-.3-.3-.6-.7-.6-1.2,0-1.3,0-2.7,0-4,0-.5.1-.9.8-.9,2.4,0,4.8-.2,7.2,0,.7.9.4,1.9.3,2.9,0,1.3.4,2.2,1.3,3.1,2.1,2,4.1,4.1,6.2,6.2,1.3,1.2,1.9,2.6,1.8,4.4,0,1.7-.3,3.5.2,5.2Z" fill="#282c34"></path><path d="M179.6,74c-.1.2-.7-.3-.5.5.4,1.4.1,2.6-1.1,3.7-2.6,2.4-5,5.1-7.6,7.5-1.8,1.7-3.6,3.3-5.2,5.2-.5.6-.8,1.1-.7,1.9,0,.5,0,1.1,0,1.6-.1,1.7,0,3.1,1.7,4.2,1.6,1.1,1.4,3.4,0,4.8-1.2,1.2-3.3,1-4.7-.6-1.2-1.3-1-3.3.5-4.5.5-.4.6-.7.6-1.3,0-1.7,0-3.3,0-5,0-.8.2-1.4.8-2,3.5-3.5,7.1-7.1,10.6-10.6.3-.3.7-.5,1.1-.8,1.4-1.3,3-2.6,2.5-4.9.7,0,1.4,0,2.1.2Z" fill="#1a324c"></path><path d="M70.3,112.3c3.9,0,7.9-.4,11.8-.2.7,0,1.2.2,1.8.7,2.6,2.5,5.3,5,8,7.5.5.5,1,.5,1.6.5,3.2,0,6.3,0,9.5,0,.8,0,1.1.2,1.1,1.1,0,.8-.3,1-1,1-3.4,0-6.7,0-10.1,0-1.4,0-2.1-1-2.9-1.7-2.2-2-4.4-4.1-6.5-6.2-.6-.6-1.2-.8-2.1-.8-3.6,0-7.2,0-10.8,0,0-.6-.2-1.2-.3-1.8Z" fill="#1a3857"></path><path d="M111.3,98.6c-2.4-.3-3.3-2.4-4.8-3.8-.8-.7-1.5-1.2-2.5-1-.4,0-.9,0-1.4,0-2.8.5-4.8-.6-6.5-2.8-.4-.5-.6-.9-.6-1.6,0-1.8,0-3.7,0-5.5,0-1.1-.4-2-1.2-2.7-1.9-1.8-3.7-3.8-5.6-5.6-.5-.5-.9-1-.4-1.6.5-.5,1.1,0,1.5.3.5.4.9.9,1.3,1.3,1.6,1.6,3.3,3.3,5,4.9,1.1,1,1.3,2.1,1.1,3.6-.2,1.7-.1,3.4,0,5.1,0,.9,1.9,2.5,2.9,2.6,1.3,0,2.6,0,3.9,0,1.1,0,2.1.1,2.9,1,1.5,1.5,3.3,2.7,4.5,4.5,0,.4,0,.9-.2,1.3Z" fill="#192d44"></path><path d="M125.4,189c-.5-1.6,0-3.3,0-5,0-1.2.2-2.5,0-3.7,0-1.3.3-2.3,1.3-3,1.9-1.3,2.4-3.1,2.3-5.4-.2-4.2,0-8.5,0-12.7,0-.7,0-1.3,1-1.3,1,0,1,.6,1,1.3,0,4.7-.1,9.4,0,14.1,0,2.1-.6,3.6-2.2,4.6-1.3.8-1.6,1.9-1.6,3.3,0,2.9,0,5.8,0,8.7-.7-.2-1.2-.6-1.8-1Z" fill="#1a3755"></path><path d="M187.5,139.8c-3.6,0-7.3,0-10.9,0-.8,0-1.4-.2-2-.8-1.2-1.2-2.5-2.3-3.7-3.5-.4-.4-.8-.5-1.4-.5-2.1,0-4.2,0-6.2,0-.6,0-1,0-1-.8,0-.8.4-.9,1.1-.9,2.4,0,4.8,0,7.2,0,.6,0,1,.2,1.4.6,1.1,1.2,2.3,2.3,3.4,3.4.5.5,1,.7,1.8.7,3.2,0,6.5,0,9.7,0,.6,0,.9.2,1.1.8-.2.3-.3.7-.5,1Z" fill="#1a3755"></path><path d="M155.4,179.5c-.7,0-.6-.5-.6-1,0-1.5-.1-3.1,0-4.6.1-1.4-.5-2.5-1.4-3.4-2.3-2.3-4.6-4.7-7-7-.6-.6-1-1.3-.9-2.2,0-1.2,0-2.4,0-3.6.7,0,1.3,0,2,0-.6,3.3.8,5.7,3.3,7.8,1.8,1.5,3.3,3.3,5,4.9.7.7,1,1.4,1,2.4,0,1.4,0,2.9,0,4.4,0,.4-.1.8.3,1.1-.6.4-1.1.8-1.7,1.3Z" fill="#1a3959"></path><path d="M111.2,105.5c-.1-1.1-.7-1.4-1.7-1.3-1.8.2-3.6.3-5.5.2-.6,0-.8.4-1.2.8-1.7,2.2-4.4,1.9-5.7-.6-.8-1.4,0-3.3,1.6-4.3,1.3-.8,3.1-.4,4.1,1.1.5.9,1.1,1,2,1,1.5,0,3.1,0,4.6,0,1.1,0,1.8-.1,1.6-1.4,0-.2.1-.4.2-.6,0,1.7,0,3.3,0,5Z" fill="#1a3755"></path><path d="M106,175.7c.9-2,.4-4.2.4-6.2,0-.5-.6-.7-.9-.9-2.2-1.3-2.2-4.5,0-5.7,1-.6,2.9-.5,3.9.4,1,.8,1.4,2.6.8,3.6-.2.5-.5,1-.9,1.3-1.1.6-1.1,1.6-1.1,2.7,0,2.2,0,4.4,0,6.6-.7-.6-1.5-1.2-2.2-1.8Z" fill="#1a3856"></path><path d="M105,69.8c.4,0,.8,0,1.5-.1,0,2.8,0,5.6,0,8.4,0,.5.2.9.6,1.2,2.7,2.5,5,5.4,7.8,7.8.5.4.9.9.6,1.6,0,.1-.2.3-.3.4-.7.3-1.2,0-1.7-.6-2.8-2.9-5.6-5.8-8.4-8.7-.4-.5-.6-.9-.6-1.6,0-2.4,0-4.7,0-7.1,0-.5,0-1,.5-1.3Z" fill="#192d44"></path><path d="M126.2,81c-.5-2.9-.2-5.8-.2-8.7,0-.8-.2-1.5-.8-2-.3-.2-.4-.5-.7-.7-2.3-1.5-2.1-3.8-2-6.1,0-.4.3-.7.5-1,1.5-.4,1.6-.4,1.5,1.1-.3,2.3.3,4.2,2.3,5.5,1,.7,1.3,1.7,1.3,2.9,0,2.2,0,4.3,0,6.5,0,.7.1,1.4-.4,1.9-.4.3-.9.3-1.3.4Z" fill="#192a3f"></path><path d="M135.5,192c-.5-1.6-.2-3.2-.2-4.8,0-.8-.3-1.4-.9-1.9-1.3-.9-1.6-2.3-1.1-3.7.5-1.4,1.7-2.1,3.4-2,1.2,0,2.6,1.1,2.9,2.2.4,1.3-.2,3.1-1.4,3.7-.9.5-1.2,1-1.1,2,0,0,0,.2,0,.2,0,1.3.4,2.7-.7,3.9-.2.3-.5.4-.8.5Z" fill="#1a3c5e"></path><path d="M143.9,82.8c-.4-2.7-.1-5.4-.2-8.1,0-.6.4-1,.8-1.4,1.1-.9,1.9-2.1,3.1-3,.7-.5.6-1.3.5-2.1-.2-.6-.2-1.2-.2-1.9,0-.5,0-1.1.6-1,.6,0,1.3.2,1.3,1,0,1.3,0,2.6,0,3.9,0,.4-.3.7-.6.9-.6.6-1.2,1.4-1.9,1.8-2.1,1.4-2.3,3.5-2.1,5.7.2,1.3-.2,2.7.2,4.1,0,.3-.1.6-.2.9-.6-.2-1.1-.5-1.6-.9Z" fill="#1a2c42"></path><path d="M111.8,176.3c-.4-.2-.5-.4-.5-.8,0-1.5.2-3-.2-4.5-.1-.5.2-1,.5-1.4.4-.4.8-.8,1.3-1.2,2-1.6,3.8-3.3,3.2-6.3-.2-1.1,0-2.2,0-3.4,0-.6.3-.8.9-.8.5,0,.9,0,.9.7,0,2.3,0,4.5,0,6.8,0,.5-.3.8-.6,1.2-1,1-1.9,2-2.9,2.9-1.7,1.5-1.4,3.3-1,5.1-.5.5-1,1-1.5,1.5Z" fill="#1a3653"></path><path d="M194.3,118.3c-1.6-.8-3.6-.4-4.5.9-1,1.3-2.8,1.6-4.2.7-1.5-1.1-2-2.9-1.2-4.4.7-1.1,1.6-1.9,3-1.8,1.4,0,2.4.6,3,1.9.2.5.5.7,1,.6.4,0,.8,0,1.2,0,1-.2,1.6.2,1.8,1.2,0,.3,0,.6-.2.8Z" fill="#1a3959"></path><path d="M175.5,159.8c-3.1-3.7-6.7-7-10-10.4-.6-.7-1.5-.3-2.3-.3-.7,0-1-.2-1-.9,0-.7.3-.8.9-.9,2-.2,3.5.3,4.8,1.8,2.4,2.7,5.1,5.3,7.6,7.9.6.6,1,1.1.2,1.8-.1.1,0,.3,0,.4-.1.2-.3.4-.4.6Z" fill="#1b3958"></path><path d="M125,111c0-.8,0-1.6,0-2.4.2-1.5-.4-2.5-1.4-3.5-1.1-1.1-2.4-.8-3.7-.9-.6,0-1.2,0-1.1-.9,0-.6.2-.9.9-.9,1,0,2.1,0,3.1,0,.4,0,.7,0,1,.4.7.7,1.4,1.4,2.2,2,.6.5.9,1.2.8,2,0,1.4,0,2.7,0,4.1-.6,0-1.2,0-1.8,0Z" fill="#1a2f48"></path><path d="M149.2,175.1c0,1.3-1.1,2.4-2.5,2.4-1.3,0-2.4-1.1-2.4-2.5,0-1.4,1.1-2.5,2.4-2.5,1.3,0,2.5,1.2,2.5,2.6Z" fill="#282c34"></path><path d="M184,94.7c0,1.3-1.2,2.4-2.6,2.4-1.4,0-2.5-1.2-2.4-2.5,0-1.4,1.2-2.4,2.6-2.4,1.2,0,2.4,1.3,2.3,2.5Z" fill="#282c34"></path><path d="M83.2,95.5c1.4,0,2.3,1,2.3,2.4,0,1.3-1.1,2.4-2.4,2.4-1.3,0-2.5-1.1-2.4-2.5,0-1.4,1.1-2.3,2.5-2.3Z" fill="#282c34"></path><path d="M90.8,134.7c0,1.3-1.1,2.3-2.3,2.3-1.3,0-2.4-1.2-2.4-2.5,0-1.5,1-2.4,2.3-2.4,1.4,0,2.4,1.1,2.3,2.5Z" fill="#282c34"></path><path d="M197,97.6c-.3-.9.5-2.1-.3-2.7-.7-.4-1.8-.1-2.7-.1-2.1,0-4.1,0-6.2,0,0,0-.2.2-.3.3,0-.6,0-1.2,0-1.8.5-.3,1.1-.2,1.7-.2,2.2,0,4.4,0,6.6,0,.5,0,.9,0,1.3.2,0,1.5.2,2.9-.2,4.3Z" fill="#1a3858"></path><path d="M180.4,124.2c1.3,0,2.3,1,2.3,2.2,0,1.5-1,2.4-2.4,2.4-1.2,0-2.3-1.2-2.3-2.5,0-1.2,1-2.2,2.4-2.2Z" fill="#282c34"></path><path d="M179.4,100.3c-.6-.2-.9.3-1.2.6-4.8,4.8-9.6,9.6-14.4,14.4-.3.3-.7.6-1,.9-.3-.5.2-.6.5-.8,4.9-4.9,9.8-9.8,14.7-14.7.4-.4.9-.9,1.6-.6,0,0,0,0,0,.1,0,0,0,0,0,0Z" fill="#55c2fa"></path><path d="M147.7,181.4c.5,1.1.1,2.2.3,3.3-.5.4-1,.8-1.7,1-.6-.5-.3-1.1-.3-1.7,0-1,0-2,0-3,.5.7,1.1.4,1.7.4Z" fill="#1a3857"></path><path d="M74.2,80.5c.6,0,1.3,0,1.9,0,1.4.1,2.6,0,3.7-1.3,1.1-1.3,3.2-1.1,4.5.3,1.2,1.2,1.2,3,0,4.4-1.3,1.4-3,1.6-4.4.4,0,0,0,0,0,0-.9-1.9-2.7-1.7-4.4-1.7-1.6,0-3.2,0-4.9,0-.7,0-1-.2-1-1,0-.7.2-1.1,1-1,1.2,0,2.5,0,3.7,0Z" fill="#19324d"></path><path d="M82.7,148.3c.1-.8.7-.5,1.2-.5,2.7,0,5.5,0,8.2,0,.9,0,1.4-.2,2-.9,1.4-1.6,2.9-3,4.4-4.5.3-.3.6-.4,1-.4,1.2,0,2.3,0,3.5,0,.7,0,1,.2,1,.9,0,.7-.3,1-.9.8-2.7-.6-4.5.7-5.9,2.7-2,2.7-4.6,3.9-7.9,3.3-.8-.1-1.7,0-2.5,0-1.5,0-3.2.4-4-1.5,0,0,0,0,0,0Z" fill="#1a3654"></path><path d="M87,125.7c0,1.6-.8,2.6-2.3,3.2-1.2.4-2.5.1-3.4-1.2-.7-1-1.5-1.3-2.6-1.2-1.4,0-2.7,0-4.1,0-.7,0-1-.3-1.2-1-.1-.7,0-.8.7-.8,1.7,0,3.5,0,5.2,0,.8,0,1.3-.1,1.8-.9.7-1.3,2.2-1.8,3.3-1.5,1.8.6,2.6,1.6,2.6,3.3Z" fill="#1a3756"></path><path d="M77,96.3c-.3.3-.7.5-1.2.5-1.9,0-3.9,0-5.8,0-.6,0-1-.1-1-.9,0-.7.3-.9,1-.9,1.9,0,3.8,0,5.7,0,1,0,1.5.3,1.3,1.3,0,0,0,0,0,0Z" fill="#1a3451"></path><path d="M153.9,93.7c-.7-.7-.7-1.5-1.1-2.2-.2-.4.1-.5.3-.7,2.6-3,5.6-5.7,8.4-8.5.8-.8,1.1-1.5,1.1-2.6,0-2.2,0-4.4,0-6.6,0-.6,0-1.2.8-1.2.9,0,.9.6.9,1.3,0,2.7,0,5.5,0,8.2,0,.7-.3,1.2-.8,1.6-2.6,2.5-5.1,5.1-7.7,7.7-.9.9-1.7,1.7-1.9,3.1Z" fill="#1a2e46"></path><path d="M157.7,76.5c0,1.7-1,2.9-2.5,3.4-1.4.4-3-.3-3.7-1.7-.8-1.5-.7-2.9.6-3.9,1.3-.9,1.5-2,1.4-3.4,0-.8,0-1.6,0-2.4,0-.4-.2-1,.4-1,.5,0,1,.2,1.1.9.2,1.2.2,2.3.2,3.5,0,.8.2,1.3.8,1.8.9.7,1.9,1.5,1.7,2.8Z" fill="#1a2f47"></path><path d="M136,74c0-1.2.1-2.5,0-3.7-.3-1.9.7-3.1,2.1-4.1,1.3-.9,2.2-2.1,3.2-3.2.7-.7,1.8-.8,2.4,0,.4.5-.2.8-.5,1.1-1.5,1.1-2.7,2.6-4.1,3.9-.8.7-1.1,1.5-1.1,2.6,0,2.9,0,5.7,0,8.6,0,.4.1,1.1-.6.9-.5-.1-1.4,0-1.4-1,0-1.7,0-3.3,0-5Z" fill="#1a2e46"></path><path d="M131.3,69.5c0-2.9,0-5.8,0-8.7,0-.8,0-1.8.9-1.8.8,0,1,1.1,1.1,1.7.1,1.4.2,2.7,0,4.1-.4,4.6-.2,9.2-.2,13.8,0,.6.2,1-.7,1-.7,0-1.1-.2-1.1-1,0-3,0-6.1,0-9.1Z" fill="#1a2a3f"></path><path d="M179.5,88.5c4.1-4.1,8.2-8.2,12.1-12.4.8-.8,1.5-.5,2.2-.3.3,0,.3.3.2.5-.1.2-.3.3-.4.5-3.6,3.6-7.3,7.3-10.9,10.9-1,1-2.2.2-3.2.8Z" fill="#1a2f48"></path><path d="M190.5,107.3c-4-1-6.7.9-9.3,3.8-3.3,3.7-7,7-10.5,10.6-.8.8-1.7,1.2-2.9,1.2-1.7,0-3.3,0-5,0-.7,0-1-.2-1-.9,0-.7.1-1.1.9-1.1,1.4,0,2.8-.1,4.1,0,1.6.2,2.6-.6,3.6-1.6,4.3-4.3,8.6-8.5,12.8-12.8.7-.7,1.4-.9,2.3-.9,3,0,6,0,9,0,.6,0,1.3-.2,1.3.8,0,1-.6.9-1.2.9-1.4,0-2.8,0-4.2,0Z" fill="#1a3653"></path><path d="M119.7,95.7c1.1-.4,2.2-.2,3.3-.2.7,0,1.4.1,2.1,0,3.6-.8,5.6,1.4,7.7,3.8,1,1.2,1.2,2.3,1.1,3.6,0,2.2,0,4.5,0,6.7,0,.8-.3,1.1-1.1,1.1-.8,0-1-.4-.9-1.1,0-2.4,0-4.8,0-7.1,0-1.2-.3-2.2-1.3-2.9-.2-.2-.5-.4-.6-.6-1.5-1.9-3.4-2-5.6-1.8-1.1,0-2.2,0-3.4,0q-1.6,0-1.4-1.5s0,0,0,0Z" fill="#1a314c"></path><path d="M141.2,90.1c1.2.5,2,1.1,1.8,2.5-.3,2.1.2,4.1.2,6.2,0,1.1-.2,2.2-.3,3.3,0,.9-.9,1.4-1.5,1.9-1.1.7-1.5,1.7-1.4,3,0,1,0,1.9.1,2.9,0,.5.1.9-.5.8-.5,0-1.3.3-1.4-.6,0-1.7,0-3.5,0-5.2,0-.7.7-1.1,1.1-1.4,1.5-1.1,1.9-2.6,1.9-4.5-.1-2.9,0-5.8,0-8.9Z" fill="#1a3450"></path><path d="M163.5,167.8c0-.6,0-1.2,0-1.7,0-1.3-.1-2.3-1.3-3.2-1.6-1.3-1.4-3.4.2-4.9,1.3-1.2,3.4-1,4.4.4,1.4,1.8,1.1,3.8-.7,5-.5.3-.7.7-.7,1.3,0,1.5,0,3.1,0,4.6,0,.2,0,.5,0,.7,0,.5-1.5,2.1-1.7,2-.6-.5-.2-1.2-.3-1.7,0-.8,0-1.6,0-2.4Z" fill="#1b3755"></path><path d="M122,74.8c0,1.4-1,2.9-2.1,3.4-1.4.6-2.5,0-3.6-.7-.9-.7-1.2-2.3-.9-3.3.3-.8.9-1.2,1.4-1.7.7-.7.9-1.4.7-2.4-.3-1.3.2-2.5.4-3.8,0-.4.3-.6.7-.2.4.4.8.8.8,1.5,0,.5,0,1,0,1.5-.1,1.4,0,2.7,1.4,3.5.8.5.9,1.5,1.1,2.2Z" fill="#192e46"></path><path d="M112,73.8c-.9,3.6.6,6.1,3.4,8.3.9.7,1.5,1.7,2.4,2.5.5.5.4.7,0,1.1-.4.3-.7.7-1.2.2-2-2.1-4.2-3.9-6-6.2-.4-.5-.5-.9-.5-1.5,0-2.7,0-5.4,0-8.1,0-.9,0-2.2,1.2-2.1,1,0,.8,1.2.8,2.1,0,1.2,0,2.5,0,3.7Z" fill="#192c42"></path><path d="M162.7,101.1c0-1,.3-1.5,1.2-1.6.9,0,1.3.4,1.3,1.2,0,.7-.3,1.4-1.1,1.4-.8,0-1.4-.3-1.4-1Z" fill="#282c34"></path><path d="M101.5,103.5c-.2.7-.6,1.3-1.4,1.3-.8,0-1.4-.5-1.3-1.3,0-.7.4-1.4,1.2-1.3.8,0,1.4.4,1.5,1.4Z" fill="#282c34"></path><path d="M108.5,165.9c0,.6-.4,1.3-1.3,1.3-.8,0-1.4-.6-1.4-1.4,0-.8.7-1.5,1.5-1.5.6,0,1.2.7,1.3,1.6Z" fill="#282c34"></path><path d="M137.7,182.7c-.2.7-.3,1.5-1.3,1.5-.7,0-1.6-.9-1.6-1.6,0-.8.5-1.3,1.3-1.4.7,0,1.6.8,1.6,1.5Z" fill="#282c34"></path><path d="M186,117.1c0-.9.5-1.5,1.5-1.6.9,0,1.2.7,1.2,1.4,0,.8-.8,1.6-1.6,1.5-.8,0-1.1-.6-1.1-1.4Z" fill="#282c34"></path><path d="M81.8,83c-1,0-1.4-.7-1.4-1.4,0-.8.7-1.3,1.5-1.3.9,0,1.3.7,1.3,1.5,0,.9-.7,1.3-1.5,1.3Z" fill="#282c34"></path><path d="M84,127c-1,0-1.5-.4-1.5-1.3,0-.8.2-1.5,1.2-1.5.9,0,1.4.5,1.5,1.3,0,.9-.6,1.3-1.2,1.4Z" fill="#282c34"></path><path d="M165.8,160.4c0,.8-.4,1.5-1.2,1.5-.8,0-1.5-.6-1.5-1.4,0-.8.5-1.4,1.3-1.4.8,0,1.4.5,1.4,1.4Z" fill="#282c34"></path></g></g></svg>