<?xml version="1.0" encoding="UTF-8" standalone="yes"?><svg xmlns="http://www.w3.org/2000/svg" baseProfile="tiny-ps" version="1.2" viewBox="0 0 256 256"><title>logodone</title><!-- Generator: Adobe Illustrator 28.7.1, SVG Export Plug-In . SVG Version: 1.2.0 Build 142)  --><g><g id="Layer_1"><path d="M0,128C0,85.7,0,43.4,0,1.1,0,.2.2,0,1.1,0c84.6,0,169.1,0,253.7,0,.9,0,1.1.2,1.1,1.1,0,84.6,0,169.1,0,253.7,0,.9-.2,1.1-1.1,1.1-84.6,0-169.1,0-253.7,0-.9,0-1.1-.2-1.1-1.1,0-42.3,0-84.6,0-126.9Z" fill="#282c34"></path><path d="M61.8,64.5c0-1,0-2.1.2-3.1.3.7,0,1.4.2,2,0-1.6.1-3.4,0-5.2.1-1.7.3-3.5.3-5.2,0-1.1.5-1.3,1.4-1.3,2.6,0,5.1-.3,7.7-.5,8.2-.7,16.2-2.2,24.1-4.4,11.3-3.1,21.8-8,31.4-14.7.7-.5,1.1-.5,1.8,0,11.7,8,24.6,13.2,38.3,16.3,8.5,1.9,17,3,25.7,3.2.6,0,.8.2.9.9.7,7.7.9,15.4.7,23.1-.5,15.1-2.6,29.9-7.9,44.2-4.7,12.5-12,23.3-21.5,32.6-9.8,9.6-21.4,16.6-33.5,22.6-2.6,1.3-4.5,1.3-7.1,0-12.4-6.1-24.1-13.4-34-23.2-11.9-11.7-19.6-25.6-23.8-41.6-2.3-8.7-3.7-17.6-4.3-26.6,0-.7-.1-1.4-.2-2.1.2-1.6,0-3.2,0-4.8-.2-3.8,0-7.5-.1-11.3,0-.3,0-.6,0-.9Z" fill="#61afef"></path><path d="M61.8,64.5c.2,0,.3.3.3.5-.2,4.9,0,9.8.2,14.8,0,.6.1,1.2-.2,1.7-.4-5.6-.4-11.3-.3-17Z" fill="#04bdf1"></path><path d="M62.1,58.3c.5,1.7,0,3.3,0,5,0-.6,0-1.2-.1-1.8,0-1.1,0-2.1,0-3.2Z" fill="#04bdf1"></path><path d="M186.7,72.4c-.2,3.2-.3,6.4-.5,9.6-1,15.4-3.8,30.4-11.1,44.3-6.8,13.1-16.7,23.3-28.8,31.5-5.7,3.9-11.7,7.2-17.8,10.2-.5.2-.9.3-1.4,0-12.4-6.2-24-13.6-33.5-23.9-8.8-9.4-14.8-20.3-18.6-32.6-2.6-8.4-4-17-4.8-25.8-.3-3.1-.3-6.1-.7-9.2-.2-.2-.2-.5-.2-.7,0-3.7,0-7.5,0-11.2,0-.2,0-.5.2-.7.3-1.3.2-2.6.2-3.8,0-.8.3-1.1,1.1-1.2,20.1-1.4,39-6.6,56.4-17,.5-.3.8-.4,1.4,0,11.1,6.9,23.2,11.2,35.9,14.1,6.9,1.6,13.9,2.6,21,3,.2,0,.5,0,.7,0,.5.5.3,1.2.3,1.8.3,3.8.2,7.5.2,11.3,0,.1,0,.2-.2.3Z" fill="#282c34"></path><path d="M186.7,72.4c0-4-.1-8.1-.2-12.1,0-.5,0-.9-.1-1.3.7.8.6,1.7.6,2.6,0,4.5,0,9.1,0,13.6,0,.1,0,.2-.3.3v-3.1Z" fill="#03bcf9"></path><path d="M69.5,64.1c0,4.2,0,8.4,0,12.6,0,.4,0,.9-.1,1.3,0,0,0,0,0,0v-15.8s0,0,0,0c0,.6,0,1.2.1,1.8Z" fill="#04c5fe"></path><path d="M154.9,128.7c-.2,3.2-1.7,4.9-5,5.5-.3-.1-.7,0-1,0-14.2,0-28.5,0-42.7,0-.3,0-.7,0-1,0-2.3-.4-3.6-1.9-4-4.2.2-.4,0-.9,0-1.4,0-9.6,0-19.2,0-28.8,0-1.4-.1-2.7.4-4.1.8-1.3,1.9-2.3,3.4-2.5.3-.8.1-1.7.1-2.6,0-2.5.1-5.1,0-7.6.4-4.7,2.3-8.6,5.4-12.1,5-5.6,11.3-8.4,18.8-8,10.8.6,19.4,9,21.1,18.2.7,3.7.3,7.5.4,11.2,0,.7,0,1.1.9,1.3,1.1.2,1.8.9,2.3,1.9.6,1.7.7,3.5.7,5.3,0,8.9,0,17.7,0,26.6,0,.5,0,.9,0,1.4Z" fill="#61afef"></path><path d="M79,106.3c-1.2-1.2-2.4-2.4-3.6-3.6-.4-.4-.3-.6,0-.9,5-4.9,9.9-9.7,14.9-14.6,1.1,1.2,2.3,2.5,3.6,3.8.6.6,0,.9-.3,1.2-2.9,2.9-5.8,5.9-8.7,8.8q-1.4,1.4,0,2.8c2.9,2.9,5.7,5.9,8.6,8.8.7.7.6,1.1,0,1.6-1.1,1-2,2.2-3.2,3.1-.9-.6-1.6-1.5-2.4-2.2-2.6-2.6-5.2-5.2-7.9-7.8-.3-.3-.6-.7-1-.9Z" fill="#61afef"></path><path d="M162.9,114.3c-.2-.2-.4-.4-.7-.6-.3-.7.2-1,.6-1.3,3-3,6.1-6.1,9.1-9.1.3-.3,1-.5.5-1.2-3.4-3.4-6.9-6.8-10.3-10.3-.3-.3-.3-.5,0-.8,1.2-1.2,2.5-2.5,3.7-3.7.4.2.6.5.9.7,4.4,4.4,8.9,8.9,13.4,13.3.7.7.8,1.1,0,1.9-4.4,4.3-8.7,8.7-13.1,13.1-.7.7-1.1.7-1.8,0-.7-.7-1.3-1.5-2.2-2Z" fill="#61afef"></path><path d="M162.9,114.3c1.1.2,1.6,1.2,2.4,1.9.6.5.9.5,1.4,0,4.4-4.4,8.7-8.8,13.1-13.1.9-.8.3-1.3-.2-1.8-4.4-4.3-8.7-8.7-13.1-13-.3-.3-.6-.6-.8-.9.5-.2.7.3.9.6,4.5,4.5,9.1,9.1,13.6,13.6.7.7.7,1,0,1.6-4.5,4.5-9,9-13.5,13.5-.7.7-1,.7-1.6,0-.7-.8-1.5-1.5-2.3-2.3Z" fill="#61afef"></path><path d="M105.3,134.2c.5-.3,1.1-.2,1.6-.2,13.8,0,27.6,0,41.4,0,.6,0,1.2-.1,1.7.2-3.7,0-7.5,0-11.2,0-10.6,0-21.2,0-31.8,0-.5,0-1.1,0-1.6,0Z" fill="#02cdfd"></path><path d="M101.8,95.8c-.6,11-.1,22-.3,33,0,.4,0,.8-.2,1.2,0-10.8,0-21.6,0-32.4,0-.6.2-1.2.5-1.8Z" fill="#04ccfd"></path><path d="M154.9,128.7c-.3-.5-.2-1.1-.2-1.6,0-7.7,0-15.5,0-23.2,0-2.8,0-5.6-.6-8.4.5.9.8,1.9.8,2.8,0,10.1,0,20.2,0,30.3Z" fill="#02c7fd"></path><path d="M172.4,102c.6.7,0,1-.4,1.3-2.9,3-5.9,5.9-8.9,8.9-.4.4-.9.8-.9,1.4-.8-.5-.2-.8.1-1.1,3.2-3.2,6.3-6.4,9.5-9.5.3-.3.8-.4.6-1Z" fill="#03b6f2"></path><path d="M79,106.3c.3-.2.5,0,.6.2,3.5,3.6,7.1,7.1,10.6,10.7-.4.2-.5,0-.7-.3-3.5-3.6-7-7.1-10.5-10.7Z" fill="#04b5f1"></path><path d="M105.3,83c.4.7.2,1.4.2,2.1,0,2.3,0,4.7,0,7,0,.4.3.8-.2,1.1,0-3.4-.1-6.8,0-10.2Z" fill="#02cafe"></path><path d="M113.3,93.5c.1-3.4-.3-6.8.3-10.2.9-5.8,5.9-10.8,11.8-11.7,8.5-1.3,15.4,3.3,17.3,11.7.1.5.1,1.1.2,1.6,0,2.9.1,5.7,0,8.6-.3.2-.7.1-1.1.1-9.1,0-18.2,0-27.3,0-.4,0-.8.1-1.1-.2Z" fill="#282c34"></path><path d="M122.1,126c.8-3.5,1.5-6.9,2.4-10.3.3-1.1.2-1.9-.8-2.8-3.4-3.2-2.3-8.7,1.8-10.4,3-1.2,6.4-.2,8.1,2.6,1.6,2.6,1.1,6.2-1.4,8.2-.7.6-.8,1-.6,1.8.8,3.4,1.5,6.8,2.3,10.2.1.6,0,.8-.6.8-3.7,0-7.5,0-11.3,0Z" fill="#282c34"></path><path d="M113.3,93.5c9.8,0,19.6,0,29.5,0-.3.5-.7.2-1.1.2-9,0-18,0-26.9,0-.5,0-1,.1-1.4-.3Z" fill="#02ccfe"></path><text transform="translate(28.5 207.5)" fill="#abb2bf" font-family="JetBrainsMono-Bold, 'JetBrains Mono'" font-size="30" font-weight="700"><tspan x="0" y="0">CipherHacks</tspan></text></g></g></svg>